<mxfile host="app.diagrams.net" modified="2023-05-06T20:16:13.966Z" agent="Mozilla/5.0 (Windows NT 10.0; Win64; x64) AppleWebKit/537.36 (KHTML, like Gecko) Chrome/112.0.0.0 Safari/537.36" etag="w52Cb866DMYvtFOVGYgW" version="21.2.9" type="github">
  <diagram name="Page-1" id="BcVqzwe_mRdca8MB3KrV">
    <mxGraphModel dx="339" dy="178" grid="1" gridSize="10" guides="1" tooltips="1" connect="1" arrows="1" fold="1" page="1" pageScale="1" pageWidth="1100" pageHeight="850" background="#ffffff" math="0" shadow="0">
      <root>
        <mxCell id="0" />
        <mxCell id="1" parent="0" />
        <mxCell id="z27vIMXT-t29f3IuwXjS-25" value="" style="group" vertex="1" connectable="0" parent="1">
          <mxGeometry x="270" y="110" width="90" height="99.43" as="geometry" />
        </mxCell>
        <mxCell id="z27vIMXT-t29f3IuwXjS-6" value="BSE" style="text;html=1;fontSize=16;fontStyle=1;verticalAlign=middle;align=center;fontColor=#000000;" vertex="1" parent="z27vIMXT-t29f3IuwXjS-25">
          <mxGeometry x="10" width="80" height="20" as="geometry" />
        </mxCell>
        <mxCell id="z27vIMXT-t29f3IuwXjS-5" value="" style="rounded=1;whiteSpace=wrap;html=1;fillColor=none;strokeWidth=2;strokeColor=#000000;" vertex="1" parent="z27vIMXT-t29f3IuwXjS-25">
          <mxGeometry x="10.01" y="20" width="79.99" height="79.43" as="geometry" />
        </mxCell>
        <mxCell id="z27vIMXT-t29f3IuwXjS-3" value="" style="shape=image;verticalLabelPosition=bottom;verticalAlign=top;imageAspect=0;aspect=fixed;image=data:image/svg+xml,PHN2ZyB4bWxucz0iaHR0cDovL3d3dy53My5vcmcvMjAwMC9zdmciIHhtbDpzcGFjZT0icHJlc2VydmUiIHZpZXdCb3g9IjAgMCAxNjIuMTY2IDM5MC4zMDQwMiIgaWQ9IkxheWVyXzEiIHZlcnNpb249IjEuMSIgd2lkdGg9IjI1My4zODQzNyIgaGVpZ2h0PSI2MDkuODUwMDQiIGZpbGw9IiMwMDAwMDAiPjxkZWZzIGlkPSJkZWZzODMiLz4mI3hhOyYjeGE7JiN4YTs8ZyB0cmFuc2Zvcm09InRyYW5zbGF0ZSgtMTc1LjA0OSwtNjAuODQ3OTM5KSIgaWQ9ImcxOCI+JiN4YTsJPGcgaWQ9ImcxNiI+JiN4YTsJCTxwYXRoIGlkPSJwYXRoMTQiIGQ9Im0gMjgzLjUzNiwxODQuODY1IGggLTEwLjUyIGwgLTAuMjc3LC0xNi4zNCBjIC0wLjA0MywtMi41MjMgLTAuNjYxLC01LjAwNiAtMS44MDYsLTcuMjU1IEwgMjI0LjQyNyw2OS45MjUgYyAtNC4xNjIsLTguMTc1IC0xNC4xNjUsLTExLjQyNyAtMjIuMzM3LC03LjI2NiAtOC4xNzUsNC4xNjIgLTExLjQyNywxNC4xNjIgLTcuMjY2LDIyLjMzNyBsIDQ0Ljc2NSw4Ny45MjYgMC4yMDMsMTEuOTQyIGggLTExLjA2NCBjIC0yOS41OTgsMCAtNTMuNjc5LDI0LjA4IC01My42NzksNTMuNjc5IHYgMTU4LjkzIGMgMCwyOS41OTggMjQuMDgsNTMuNjc5IDUzLjY3OSw1My42NzkgaCA1NC44MDggYyAyOS41OTgsMCA1My42NzksLTI0LjA4IDUzLjY3OSwtNTMuNjc5IHYgLTE1OC45MyBjIDAsLTI5LjU5OCAtMjQuMDgsLTUzLjY3OCAtNTMuNjc5LC01My42NzggeiBtIDIwLjQ2MSwyMTIuNjA5IGMgMCwxMS4yODEgLTkuMTc4LDIwLjQ2IC0yMC40NiwyMC40NiBoIC01NC44MDggYyAtMTEuMjgxLDAgLTIwLjQ2LC05LjE3OCAtMjAuNDYsLTIwLjQ2IFYgMjM4LjU0MyBjIDAsLTExLjI4MSA5LjE3OCwtMjAuNDYgMjAuNDYsLTIwLjQ2IGggNTQuODA4IGMgMTEuMjgxLDAgMjAuNDYsOS4xNzggMjAuNDYsMjAuNDYgeiIvPiYjeGE7CTwvZz4mI3hhOzwvZz4mI3hhOyYjeGE7JiN4YTsmI3hhOyYjeGE7PGcgdHJhbnNmb3JtPSJ0cmFuc2xhdGUoLTE3NS4wNDksLTYwLjg0NzkzOSkiIGlkPSJnNDgiPiYjeGE7CTxnIGlkPSJnNDYiPiYjeGE7CQk8cGF0aCBpZD0icGF0aDQ0IiBkPSJNIDI3My44NDksMjQ2Ljg2NSBIIDI0MC42MyBjIC05LjE3MywwIC0xNi42MDksNy40MzcgLTE2LjYwOSwxNi42MDkgMCw5LjE3MiA3LjQzNywxNi42MDkgMTYuNjA5LDE2LjYwOSBoIDMzLjIxOSBjIDkuMTczLDAgMTYuNjA5LC03LjQzNyAxNi42MDksLTE2LjYwOSAwLC05LjE3MiAtNy40MzUsLTE2LjYwOSAtMTYuNjA5LC0xNi42MDkgeiIvPiYjeGE7CTwvZz4mI3hhOzwvZz4mI3hhOzxnIHRyYW5zZm9ybT0idHJhbnNsYXRlKC0xNzUuMDQ5LC02MC44NDc5MzkpIiBpZD0iZzU0Ij4mI3hhOwk8ZyBpZD0iZzUyIj4mI3hhOwkJPHBhdGggaWQ9InBhdGg1MCIgZD0iTSAyNzMuODQ5LDMwMS4zOTkgSCAyNDAuNjMgYyAtOS4xNzMsMCAtMTYuNjA5LDcuNDM3IC0xNi42MDksMTYuNjA5IDAsOS4xNzIgNy40MzcsMTYuNjA5IDE2LjYwOSwxNi42MDkgaCAzMy4yMTkgYyA5LjE3MywwIDE2LjYwOSwtNy40MzcgMTYuNjA5LC0xNi42MDkgMCwtOS4xNzIgLTcuNDM1LC0xNi42MDkgLTE2LjYwOSwtMTYuNjA5IHoiLz4mI3hhOwk8L2c+JiN4YTs8L2c+JiN4YTs8ZyB0cmFuc2Zvcm09InRyYW5zbGF0ZSgtMTc1LjA0OSwtNjAuODQ3OTM5KSIgaWQ9Imc2MCI+JiN4YTsJPGcgaWQ9Imc1OCI+JiN4YTsJCTxwYXRoIGlkPSJwYXRoNTYiIGQ9Ik0gMjczLjg0OSwzNTUuOTMzIEggMjQwLjYzIGMgLTkuMTczLDAgLTE2LjYwOSw3LjQzNyAtMTYuNjA5LDE2LjYwOSAwLDkuMTcyIDcuNDM3LDE2LjYwOSAxNi42MDksMTYuNjA5IGggMzMuMjE5IGMgOS4xNzMsMCAxNi42MDksLTcuNDM3IDE2LjYwOSwtMTYuNjA5IDAsLTkuMTcyIC03LjQzNSwtMTYuNjA5IC0xNi42MDksLTE2LjYwOSB6Ii8+JiN4YTsJPC9nPiYjeGE7PC9nPiYjeGE7JiN4YTsmI3hhOyYjeGE7PC9zdmc+" vertex="1" parent="z27vIMXT-t29f3IuwXjS-25">
          <mxGeometry x="24.52000000000001" y="29.430000000000007" width="20.97" height="50.57" as="geometry" />
        </mxCell>
        <mxCell id="z27vIMXT-t29f3IuwXjS-22" value="Position" style="text;html=1;strokeColor=none;fillColor=none;align=center;verticalAlign=middle;whiteSpace=wrap;rounded=0;fontColor=#000000;fontSize=5;fontStyle=0" vertex="1" parent="z27vIMXT-t29f3IuwXjS-25">
          <mxGeometry x="20" y="89.43" width="30" height="10" as="geometry" />
        </mxCell>
        <mxCell id="z27vIMXT-t29f3IuwXjS-28" value="" style="verticalLabelPosition=bottom;aspect=fixed;html=1;verticalAlign=top;fillColor=strokeColor;align=center;outlineConnect=0;shape=mxgraph.fluid_power.x11820;points=[[0.5,1,0]];fontColor=#000000;strokeColor=#000000;" vertex="1" parent="z27vIMXT-t29f3IuwXjS-25">
          <mxGeometry x="52.66" y="40.57" width="26.24" height="39.43" as="geometry" />
        </mxCell>
        <mxCell id="z27vIMXT-t29f3IuwXjS-30" value="Pressure" style="text;html=1;strokeColor=none;fillColor=none;align=center;verticalAlign=middle;whiteSpace=wrap;rounded=0;fontColor=#000000;fontSize=5;fontStyle=0" vertex="1" parent="z27vIMXT-t29f3IuwXjS-25">
          <mxGeometry x="50" y="89.43" width="30" height="10" as="geometry" />
        </mxCell>
        <mxCell id="z27vIMXT-t29f3IuwXjS-26" value="" style="group" vertex="1" connectable="0" parent="1">
          <mxGeometry x="190" y="110" width="70.00000000000003" height="99.43" as="geometry" />
        </mxCell>
        <mxCell id="z27vIMXT-t29f3IuwXjS-8" value="APPS" style="text;html=1;fontSize=16;fontStyle=1;verticalAlign=middle;align=center;fontColor=#000000;" vertex="1" parent="z27vIMXT-t29f3IuwXjS-26">
          <mxGeometry width="70" height="20" as="geometry" />
        </mxCell>
        <mxCell id="z27vIMXT-t29f3IuwXjS-7" value="" style="rounded=1;whiteSpace=wrap;html=1;fillColor=none;strokeWidth=2;strokeColor=#000000;" vertex="1" parent="z27vIMXT-t29f3IuwXjS-26">
          <mxGeometry x="10" y="20" width="50" height="79.43" as="geometry" />
        </mxCell>
        <mxCell id="z27vIMXT-t29f3IuwXjS-2" value="" style="shape=image;verticalLabelPosition=bottom;verticalAlign=top;imageAspect=0;aspect=fixed;image=data:image/svg+xml,PHN2ZyB4bWxucz0iaHR0cDovL3d3dy53My5vcmcvMjAwMC9zdmciIHhtbDpzcGFjZT0icHJlc2VydmUiIHZpZXdCb3g9IjAgMCAxNjIuMTY1MDEgMzkwLjMwMDk4IiBpZD0iTGF5ZXJfMSIgdmVyc2lvbj0iMS4xIiB3aWR0aD0iMjUzLjM4MjgzIiBoZWlnaHQ9IjYwOS44NDUyOCIgZmlsbD0iIzAwMDAwMCI+PGRlZnMgaWQ9ImRlZnM4MyIvPiYjeGE7PGcgdHJhbnNmb3JtPSJ0cmFuc2xhdGUoLTM0OS44MzQ5OSwtNjAuODUyMDAxKSIgaWQ9Imc2Ij4mI3hhOwk8ZyBpZD0iZzQiPiYjeGE7CQk8cGF0aCBpZD0icGF0aDIiIGQ9Ik0gNDU4LjMyMSwxMTMuOTk5IEggNDQ3LjUyNyBWIDc3LjQ2MSBjIDAsLTkuMTczIC03LjQzNywtMTYuNjA5IC0xNi42MDksLTE2LjYwOSAtOS4xNzIsMCAtMTYuNjA5LDcuNDM3IC0xNi42MDksMTYuNjA5IHYgMzYuNTM4IGggLTEwLjc5NSBjIC0yOS41OTgsMCAtNTMuNjc5LDI0LjA4IC01My42NzksNTMuNjc5IHYgMjI5Ljc5NiBjIDAsMjkuNTk4IDI0LjA4LDUzLjY3OSA1My42NzksNTMuNjc5IGggNTQuODA3IGMgMjkuNTk4LDAgNTMuNjc5LC0yNC4wOCA1My42NzksLTUzLjY3OSBWIDE2Ny42NzcgYyAwLC0yOS41OTggLTI0LjA4LC01My42NzggLTUzLjY3OSwtNTMuNjc4IHogbSAyMC40NjEsMjgzLjQ3NSBjIDAsMTEuMjgxIC05LjE3OCwyMC40NiAtMjAuNDYsMjAuNDYgaCAtNTQuODA3IGMgLTExLjI4MSwwIC0yMC40NiwtOS4xNzggLTIwLjQ2LC0yMC40NiBWIDE2Ny42NzcgYyAwLC0xMS4yODEgOS4xNzgsLTIwLjQ2IDIwLjQ2LC0yMC40NiBoIDU0LjgwNyBjIDExLjI4MSwwIDIwLjQ2LDkuMTc4IDIwLjQ2LDIwLjQ2IHoiLz4mI3hhOwk8L2c+JiN4YTs8L2c+JiN4YTsmI3hhOyYjeGE7PGcgdHJhbnNmb3JtPSJ0cmFuc2xhdGUoLTM0OS44MzQ5OSwtNjAuODUyMDAxKSIgaWQ9ImcyNCI+JiN4YTsJPGcgaWQ9ImcyMiI+JiN4YTsJCTxwYXRoIGlkPSJwYXRoMjAiIGQ9Im0gNDQ4LjMwMSwyMzcuNzMgaCAtMzQuNzY4IGMgLTkuMTczLDAgLTE2LjYwOSw3LjQzNyAtMTYuNjA5LDE2LjYwOSAwLDkuMTcyIDcuNDM3LDE2LjYwOSAxNi42MDksMTYuNjA5IGggMzQuNzY4IGMgOS4xNzMsMCAxNi42MDksLTcuNDM3IDE2LjYwOSwtMTYuNjA5IDAsLTkuMTcyIC03LjQzNiwtMTYuNjA5IC0xNi42MDksLTE2LjYwOSB6Ii8+JiN4YTsJPC9nPiYjeGE7PC9nPiYjeGE7PGcgdHJhbnNmb3JtPSJ0cmFuc2xhdGUoLTM0OS44MzQ5OSwtNjAuODUyMDAxKSIgaWQ9ImczMCI+JiN4YTsJPGcgaWQ9ImcyOCI+JiN4YTsJCTxwYXRoIGlkPSJwYXRoMjYiIGQ9Im0gNDQ4LjMwMSwxNzkuODc1IGggLTM0Ljc2OCBjIC05LjE3MywwIC0xNi42MDksNy40MzcgLTE2LjYwOSwxNi42MDkgMCw5LjE3MiA3LjQzNywxNi42MDkgMTYuNjA5LDE2LjYwOSBoIDM0Ljc2OCBjIDkuMTczLDAgMTYuNjA5LC03LjQzNyAxNi42MDksLTE2LjYwOSAwLC05LjE3MiAtNy40MzYsLTE2LjYwOSAtMTYuNjA5LC0xNi42MDkgeiIvPiYjeGE7CTwvZz4mI3hhOzwvZz4mI3hhOzxnIHRyYW5zZm9ybT0idHJhbnNsYXRlKC0zNDkuODM0OTksLTYwLjg1MjAwMSkiIGlkPSJnMzYiPiYjeGE7CTxnIGlkPSJnMzQiPiYjeGE7CQk8cGF0aCBpZD0icGF0aDMyIiBkPSJtIDQ0OC4zMDEsMjk1LjU4NiBoIC0zNC43NjggYyAtOS4xNzMsMCAtMTYuNjA5LDcuNDM3IC0xNi42MDksMTYuNjA5IDAsOS4xNzIgNy40MzcsMTYuNjA5IDE2LjYwOSwxNi42MDkgaCAzNC43NjggYyA5LjE3MywwIDE2LjYwOSwtNy40MzcgMTYuNjA5LC0xNi42MDkgMCwtOS4xNzIgLTcuNDM2LC0xNi42MDkgLTE2LjYwOSwtMTYuNjA5IHoiLz4mI3hhOwk8L2c+JiN4YTs8L2c+JiN4YTs8ZyB0cmFuc2Zvcm09InRyYW5zbGF0ZSgtMzQ5LjgzNDk5LC02MC44NTIwMDEpIiBpZD0iZzQyIj4mI3hhOwk8ZyBpZD0iZzQwIj4mI3hhOwkJPHBhdGggaWQ9InBhdGgzOCIgZD0ibSA0NDguMzAxLDM1My40NDEgaCAtMzQuNzY4IGMgLTkuMTczLDAgLTE2LjYwOSw3LjQzNyAtMTYuNjA5LDE2LjYwOSAwLDkuMTcyIDcuNDM3LDE2LjYwOSAxNi42MDksMTYuNjA5IGggMzQuNzY4IGMgOS4xNzMsMCAxNi42MDksLTcuNDM3IDE2LjYwOSwtMTYuNjA5IDAsLTkuMTcyIC03LjQzNiwtMTYuNjA5IC0xNi42MDksLTE2LjYwOSB6Ii8+JiN4YTsJPC9nPiYjeGE7PC9nPiYjeGE7JiN4YTsmI3hhOyYjeGE7JiN4YTsmI3hhOyYjeGE7PC9zdmc+" vertex="1" parent="z27vIMXT-t29f3IuwXjS-26">
          <mxGeometry x="24.52000000000001" y="29.430000000000007" width="20.97" height="50.57" as="geometry" />
        </mxCell>
        <mxCell id="z27vIMXT-t29f3IuwXjS-23" value="Pos 1" style="text;html=1;strokeColor=none;fillColor=none;align=center;verticalAlign=middle;whiteSpace=wrap;rounded=0;fontColor=#000000;fontSize=5;fontStyle=0" vertex="1" parent="z27vIMXT-t29f3IuwXjS-26">
          <mxGeometry x="10" y="89.43" width="24.52" height="10" as="geometry" />
        </mxCell>
        <mxCell id="z27vIMXT-t29f3IuwXjS-24" value="Pos 2" style="text;html=1;strokeColor=none;fillColor=none;align=center;verticalAlign=middle;whiteSpace=wrap;rounded=0;fontColor=#000000;fontSize=5;fontStyle=0" vertex="1" parent="z27vIMXT-t29f3IuwXjS-26">
          <mxGeometry x="34.52000000000001" y="89.43" width="24.52" height="10" as="geometry" />
        </mxCell>
      </root>
    </mxGraphModel>
  </diagram>
</mxfile>
